<svg width="17" height="12" viewBox="0 0 17 12" fill="none" xmlns="http://www.w3.org/2000/svg">
<path fill-rule="evenodd" clip-rule="evenodd" d="M10.22 0.21934C10.3606 0.0788894 10.5512 0 10.75 0C10.9488 0 11.1394 0.0788894 11.28 0.21934L16.28 5.21934C16.4205 5.35997 16.4993 5.55059 16.4993 5.74934C16.4993 5.94809 16.4205 6.13871 16.28 6.27934L11.28 11.2793C11.2113 11.353 11.1285 11.4121 11.0365 11.4531C10.9445 11.4941 10.8452 11.5162 10.7445 11.5179C10.6438 11.5197 10.5438 11.5012 10.4504 11.4635C10.357 11.4257 10.2722 11.3696 10.201 11.2984C10.1297 11.2272 10.0736 11.1423 10.0359 11.0489C9.99816 10.9555 9.97963 10.8555 9.98141 10.7548C9.98318 10.6541 10.0052 10.5548 10.0462 10.4628C10.0872 10.3708 10.1463 10.288 10.22 10.2193L13.94 6.49934H5.75C5.037 6.49934 3.95 6.71934 3.063 7.35834C2.215 7.96834 1.5 8.99334 1.5 10.7493C1.5 10.9483 1.42098 11.139 1.28033 11.2797C1.13968 11.4203 0.948912 11.4993 0.75 11.4993C0.551088 11.4993 0.360322 11.4203 0.21967 11.2797C0.0790175 11.139 0 10.9483 0 10.7493C0 8.50534 0.952 7.02934 2.187 6.14034C3.383 5.27934 4.797 4.99934 5.75 4.99934H13.94L10.22 1.27934C10.0795 1.13871 10.0007 0.948091 10.0007 0.74934C10.0007 0.550589 10.0795 0.359965 10.22 0.21934Z" fill="#F2F2F2"/>
</svg>
