<svg width="17" height="20" viewBox="0 0 17 20" fill="none" xmlns="http://www.w3.org/2000/svg">
<path d="M9.5 7H15L9.5 1.5V7ZM2.5 0H10.5L16.5 6V18C16.5 18.5304 16.2893 19.0391 15.9142 19.4142C15.5391 19.7893 15.0304 20 14.5 20H2.5C1.96957 20 1.46086 19.7893 1.08579 19.4142C0.710714 19.0391 0.5 18.5304 0.5 18V2C0.5 0.89 1.39 0 2.5 0ZM10.5 18V17C10.5 15.67 7.83 15 6.5 15C5.17 15 2.5 15.67 2.5 17V18H10.5ZM6.5 10C5.96957 10 5.46086 10.2107 5.08579 10.5858C4.71071 10.9609 4.5 11.4696 4.5 12C4.5 12.5304 4.71071 13.0391 5.08579 13.4142C5.46086 13.7893 5.96957 14 6.5 14C7.03043 14 7.53914 13.7893 7.91421 13.4142C8.28929 13.0391 8.5 12.5304 8.5 12C8.5 11.4696 8.28929 10.9609 7.91421 10.5858C7.53914 10.2107 7.03043 10 6.5 10Z" fill="#F2F2F2"/>
</svg>
