<?xml version="1.0" standalone="no"?>
<!DOCTYPE svg PUBLIC "-//W3C//DTD SVG 20010904//EN"
 "http://www.w3.org/TR/2001/REC-SVG-20010904/DTD/svg10.dtd">
<svg version="1.0" xmlns="http://www.w3.org/2000/svg"
 width="700.000000pt" height="700.000000pt" viewBox="0 0 700.000000 700.000000"
 preserveAspectRatio="xMidYMid meet">
<metadata>
Created by potrace 1.14, written by Peter Selinger 2001-2017
</metadata>
<g transform="translate(0.000000,700.000000) scale(0.100000,-0.100000)"
fill="#000000" stroke="none">
<path d="M0 3500 l0 -3500 1645 0 1645 0 2 1252 3 1252 703 -1245 c387 -684
707 -1248 711 -1252 7 -7 1981 3469 1981 3487 0 3 -111 6 -247 6 l-248 0 96
98 c116 116 197 219 275 344 621 1002 224 2272 -881 2818 -747 369 -1662 312
-2347 -146 -321 -215 -573 -502 -731 -833 -36 -75 -53 -101 -59 -90 -135 231
-246 374 -423 540 -299 281 -726 514 -1171 639 -272 76 -638 130 -885 130
l-69 0 0 -3500z m2630 589 c89 -178 218 -356 372 -511 l76 -78 -530 0 -530 0
78 73 c194 178 338 358 445 555 18 34 35 62 36 62 1 0 25 -45 53 -101z"/>
</g>
</svg>
